<mxfile host="app.diagrams.net" modified="2023-12-18T16:06:36.602Z" agent="Mozilla/5.0 (Windows NT 10.0; Win64; x64) AppleWebKit/537.36 (KHTML, like Gecko) Chrome/120.0.0.0 Safari/537.36" etag="thHge16T639XoPzm66q_" version="22.1.11" type="device">
  <diagram name="Page-1" id="N74wSGbYCnpi4f07zSb_">
    <mxGraphModel dx="830" dy="444" grid="1" gridSize="10" guides="1" tooltips="1" connect="1" arrows="1" fold="1" page="1" pageScale="1" pageWidth="850" pageHeight="1100" math="0" shadow="0">
      <root>
        <mxCell id="0" />
        <mxCell id="1" parent="0" />
        <mxCell id="c_OIRIOZ4PcbaULOhp54-16" value="" style="rounded=0;whiteSpace=wrap;html=1;fillStyle=hatch;fillColor=#fff2cc;strokeColor=#d6b656;" vertex="1" parent="1">
          <mxGeometry x="340" y="730" width="540" height="265" as="geometry" />
        </mxCell>
        <mxCell id="fYxGhFISUFesg8JLMRf--1" value="Actor" style="shape=umlActor;verticalLabelPosition=bottom;verticalAlign=top;html=1;outlineConnect=0;" parent="1" vertex="1">
          <mxGeometry x="50" y="250" width="30" height="60" as="geometry" />
        </mxCell>
        <mxCell id="fYxGhFISUFesg8JLMRf--2" value="" style="ellipse;whiteSpace=wrap;html=1;aspect=fixed;" parent="1" vertex="1">
          <mxGeometry x="100" y="210" width="80" height="80" as="geometry" />
        </mxCell>
        <mxCell id="fYxGhFISUFesg8JLMRf--4" value="Резюме" style="swimlane;fontStyle=0;childLayout=stackLayout;horizontal=1;startSize=30;horizontalStack=0;resizeParent=1;resizeParentMax=0;resizeLast=0;collapsible=1;marginBottom=0;whiteSpace=wrap;html=1;" parent="1" vertex="1">
          <mxGeometry x="30" y="70" width="140" height="120" as="geometry" />
        </mxCell>
        <mxCell id="fYxGhFISUFesg8JLMRf--5" value="fio" style="text;strokeColor=none;fillColor=none;align=left;verticalAlign=middle;spacingLeft=4;spacingRight=4;overflow=hidden;points=[[0,0.5],[1,0.5]];portConstraint=eastwest;rotatable=0;whiteSpace=wrap;html=1;" parent="fYxGhFISUFesg8JLMRf--4" vertex="1">
          <mxGeometry y="30" width="140" height="30" as="geometry" />
        </mxCell>
        <mxCell id="fYxGhFISUFesg8JLMRf--6" value="iin" style="text;strokeColor=none;fillColor=none;align=left;verticalAlign=middle;spacingLeft=4;spacingRight=4;overflow=hidden;points=[[0,0.5],[1,0.5]];portConstraint=eastwest;rotatable=0;whiteSpace=wrap;html=1;" parent="fYxGhFISUFesg8JLMRf--4" vertex="1">
          <mxGeometry y="60" width="140" height="30" as="geometry" />
        </mxCell>
        <mxCell id="fYxGhFISUFesg8JLMRf--7" value="expirience" style="text;strokeColor=none;fillColor=none;align=left;verticalAlign=middle;spacingLeft=4;spacingRight=4;overflow=hidden;points=[[0,0.5],[1,0.5]];portConstraint=eastwest;rotatable=0;whiteSpace=wrap;html=1;" parent="fYxGhFISUFesg8JLMRf--4" vertex="1">
          <mxGeometry y="90" width="140" height="30" as="geometry" />
        </mxCell>
        <mxCell id="fYxGhFISUFesg8JLMRf--8" value="def blank" style="shape=cube;whiteSpace=wrap;html=1;boundedLbl=1;backgroundOutline=1;darkOpacity=0.05;darkOpacity2=0.1;" parent="1" vertex="1">
          <mxGeometry x="400" y="200" width="120" height="80" as="geometry" />
        </mxCell>
        <mxCell id="fYxGhFISUFesg8JLMRf--9" value="/blank" style="shape=step;perimeter=stepPerimeter;whiteSpace=wrap;html=1;fixedSize=1;fillColor=#dae8fc;strokeColor=#6c8ebf;" parent="1" vertex="1">
          <mxGeometry x="230" y="220" width="130" height="40" as="geometry" />
        </mxCell>
        <mxCell id="fYxGhFISUFesg8JLMRf--10" style="edgeStyle=orthogonalEdgeStyle;rounded=0;orthogonalLoop=1;jettySize=auto;html=1;entryX=0.059;entryY=-0.042;entryDx=0;entryDy=0;entryPerimeter=0;" parent="1" source="fYxGhFISUFesg8JLMRf--4" target="fYxGhFISUFesg8JLMRf--9" edge="1">
          <mxGeometry relative="1" as="geometry" />
        </mxCell>
        <mxCell id="fYxGhFISUFesg8JLMRf--11" style="edgeStyle=orthogonalEdgeStyle;rounded=0;orthogonalLoop=1;jettySize=auto;html=1;entryX=-0.019;entryY=0.211;entryDx=0;entryDy=0;entryPerimeter=0;" parent="1" source="fYxGhFISUFesg8JLMRf--9" target="fYxGhFISUFesg8JLMRf--8" edge="1">
          <mxGeometry relative="1" as="geometry" />
        </mxCell>
        <mxCell id="fYxGhFISUFesg8JLMRf--12" value="DB" style="shape=cylinder3;whiteSpace=wrap;html=1;boundedLbl=1;backgroundOutline=1;size=15;" parent="1" vertex="1">
          <mxGeometry x="620" y="150" width="60" height="80" as="geometry" />
        </mxCell>
        <mxCell id="fYxGhFISUFesg8JLMRf--13" style="edgeStyle=orthogonalEdgeStyle;rounded=0;orthogonalLoop=1;jettySize=auto;html=1;entryX=0;entryY=0;entryDx=0;entryDy=27.5;entryPerimeter=0;" parent="1" source="fYxGhFISUFesg8JLMRf--8" target="fYxGhFISUFesg8JLMRf--12" edge="1">
          <mxGeometry relative="1" as="geometry" />
        </mxCell>
        <mxCell id="fYxGhFISUFesg8JLMRf--16" style="edgeStyle=orthogonalEdgeStyle;rounded=0;orthogonalLoop=1;jettySize=auto;html=1;" parent="1" source="fYxGhFISUFesg8JLMRf--15" target="fYxGhFISUFesg8JLMRf--8" edge="1">
          <mxGeometry relative="1" as="geometry" />
        </mxCell>
        <mxCell id="fYxGhFISUFesg8JLMRf--15" value="HTML" style="shape=note;whiteSpace=wrap;html=1;backgroundOutline=1;darkOpacity=0.05;" parent="1" vertex="1">
          <mxGeometry x="620" y="290" width="80" height="100" as="geometry" />
        </mxCell>
        <mxCell id="c_OIRIOZ4PcbaULOhp54-1" value="ассоциативный массив" style="text;html=1;strokeColor=#b85450;fillColor=#f8cecc;align=center;verticalAlign=middle;whiteSpace=wrap;rounded=0;fontStyle=1" vertex="1" parent="1">
          <mxGeometry x="40" y="400" width="170" height="40" as="geometry" />
        </mxCell>
        <mxCell id="c_OIRIOZ4PcbaULOhp54-2" value="Actor" style="shape=umlActor;verticalLabelPosition=bottom;verticalAlign=top;html=1;outlineConnect=0;" vertex="1" parent="1">
          <mxGeometry x="40" y="520" width="30" height="60" as="geometry" />
        </mxCell>
        <mxCell id="c_OIRIOZ4PcbaULOhp54-3" value="кот" style="ellipse;shape=cloud;whiteSpace=wrap;html=1;" vertex="1" parent="1">
          <mxGeometry x="50" y="450" width="90" height="60" as="geometry" />
        </mxCell>
        <mxCell id="c_OIRIOZ4PcbaULOhp54-4" value="" style="shape=flexArrow;endArrow=classic;html=1;rounded=0;" edge="1" parent="1">
          <mxGeometry width="50" height="50" relative="1" as="geometry">
            <mxPoint x="85" y="560" as="sourcePoint" />
            <mxPoint x="195" y="560" as="targetPoint" />
          </mxGeometry>
        </mxCell>
        <mxCell id="c_OIRIOZ4PcbaULOhp54-5" value="хвост" style="shape=cylinder3;whiteSpace=wrap;html=1;boundedLbl=1;backgroundOutline=1;size=15;" vertex="1" parent="1">
          <mxGeometry x="200" y="560" width="60" height="80" as="geometry" />
        </mxCell>
        <mxCell id="c_OIRIOZ4PcbaULOhp54-6" value="/set" style="shape=step;perimeter=stepPerimeter;whiteSpace=wrap;html=1;fixedSize=1;fillColor=#dae8fc;strokeColor=#6c8ebf;" vertex="1" parent="1">
          <mxGeometry x="355" y="800" width="120" height="40" as="geometry" />
        </mxCell>
        <mxCell id="c_OIRIOZ4PcbaULOhp54-7" value="/get?key=name" style="shape=step;perimeter=stepPerimeter;whiteSpace=wrap;html=1;fixedSize=1;fillColor=#d5e8d4;strokeColor=#82b366;" vertex="1" parent="1">
          <mxGeometry x="355" y="860" width="120" height="40" as="geometry" />
        </mxCell>
        <mxCell id="c_OIRIOZ4PcbaULOhp54-8" value="POST" style="text;html=1;strokeColor=none;fillColor=none;align=center;verticalAlign=middle;whiteSpace=wrap;rounded=0;" vertex="1" parent="1">
          <mxGeometry x="385" y="760" width="60" height="30" as="geometry" />
        </mxCell>
        <mxCell id="c_OIRIOZ4PcbaULOhp54-10" value="GET" style="text;html=1;strokeColor=none;fillColor=none;align=center;verticalAlign=middle;whiteSpace=wrap;rounded=0;" vertex="1" parent="1">
          <mxGeometry x="385" y="910" width="60" height="30" as="geometry" />
        </mxCell>
        <mxCell id="c_OIRIOZ4PcbaULOhp54-11" value="sqlite" style="shape=cylinder3;whiteSpace=wrap;html=1;boundedLbl=1;backgroundOutline=1;size=15;" vertex="1" parent="1">
          <mxGeometry x="740" y="810" width="60" height="80" as="geometry" />
        </mxCell>
        <mxCell id="c_OIRIOZ4PcbaULOhp54-12" value="sanic" style="shape=cube;whiteSpace=wrap;html=1;boundedLbl=1;backgroundOutline=1;darkOpacity=0.05;darkOpacity2=0.1;fillColor=#f8cecc;strokeColor=#b85450;" vertex="1" parent="1">
          <mxGeometry x="515" y="810" width="120" height="80" as="geometry" />
        </mxCell>
        <mxCell id="c_OIRIOZ4PcbaULOhp54-13" value="" style="shape=flexArrow;endArrow=classic;startArrow=classic;html=1;rounded=0;exitX=1.027;exitY=0.631;exitDx=0;exitDy=0;exitPerimeter=0;" edge="1" parent="1" source="c_OIRIOZ4PcbaULOhp54-12">
          <mxGeometry width="100" height="100" relative="1" as="geometry">
            <mxPoint x="645.3600000000001" y="908.64" as="sourcePoint" />
            <mxPoint x="730" y="850" as="targetPoint" />
          </mxGeometry>
        </mxCell>
        <mxCell id="c_OIRIOZ4PcbaULOhp54-14" value="aiosqlite" style="text;html=1;strokeColor=none;fillColor=none;align=center;verticalAlign=middle;whiteSpace=wrap;rounded=0;" vertex="1" parent="1">
          <mxGeometry x="655" y="800" width="60" height="30" as="geometry" />
        </mxCell>
        <mxCell id="c_OIRIOZ4PcbaULOhp54-15" value="django" style="shape=cube;whiteSpace=wrap;html=1;boundedLbl=1;backgroundOutline=1;darkOpacity=0.05;darkOpacity2=0.1;" vertex="1" parent="1">
          <mxGeometry x="210" y="800" width="120" height="80" as="geometry" />
        </mxCell>
        <mxCell id="c_OIRIOZ4PcbaULOhp54-17" value="микросервис для кэширования (миниредис)" style="text;html=1;strokeColor=none;fillColor=none;align=center;verticalAlign=middle;whiteSpace=wrap;rounded=0;" vertex="1" parent="1">
          <mxGeometry x="530" y="700" width="270" height="20" as="geometry" />
        </mxCell>
      </root>
    </mxGraphModel>
  </diagram>
</mxfile>
